<svg width="235" height="78" viewBox="0 0 235 78" fill="none" xmlns="http://www.w3.org/2000/svg">
<g clip-path="url(#clip0_115_61)">
<g clip-path="url(#clip1_115_61)">
<path d="M73.7118 72.5833H1.64355V1.625H73.7118V72.5833ZM3.07466 71.1953H72.2807V3.03407H3.07466V71.1953Z" fill="#F4F3F0"/>
<path d="M97.6992 28.5234V2.29785H108.87V4.14857L102.569 3.2863C101.416 3.13908 100.668 3.05496 100.284 3.05496V14.7902C100.69 14.7902 101.48 14.7902 102.633 14.664L108.465 14.2855V16.01L102.633 15.6525C101.48 15.6525 100.69 15.5263 100.284 15.5263V28.5234H97.6992Z" fill="#F4F3F0"/>
<path d="M116.282 2.29837H121.366C123.583 2.16654 125.783 2.75786 127.624 3.98084C128.355 4.51613 128.942 5.21969 129.333 6.02995C129.724 6.84022 129.907 7.73249 129.867 8.62867C129.913 10.0442 129.417 11.425 128.479 12.4984C127.41 13.6132 125.999 14.3521 124.463 14.6015V14.7907C126.061 15.0709 127.511 15.8886 128.564 17.1041C129.681 18.4254 130.497 19.9673 130.956 21.6258C131.316 22.9482 131.795 24.2362 132.388 25.4744C132.741 26.2457 133.275 26.9233 133.947 27.4513C134.561 27.863 135.25 28.1557 135.976 28.3136V28.5239H134.417C133.462 28.5624 132.514 28.3597 131.661 27.9351C130.846 27.4345 130.205 26.7008 129.824 25.832C129.198 24.5761 128.711 23.2576 128.372 21.8992C127.928 19.8392 126.916 17.9398 125.446 16.4101C124.226 15.3389 122.637 14.7672 121.003 14.8118H120.768V14.1388H121.003C125.083 14.1388 127.112 12.2881 127.112 8.58662C127.112 4.88517 125.211 3.11857 121.366 3.11857H118.867V28.3557H116.282V2.29837Z" fill="#F4F3F0"/>
<path d="M140.718 28.5234V2.29785H143.302V28.5234H140.718Z" fill="#F4F3F0"/>
<path d="M153.191 28.5234V2.29785H155.776V28.5234H153.191ZM169.639 28.5234L157.164 15.0846L168.72 2.29785H171.988L159.471 14.0331L173.056 28.5234H169.639Z" fill="#F4F3F0"/>
<path d="M174.808 28.5234L185.039 2.29785H187.41L197.641 28.5234H194.865L190.144 16.2414H181.493L177.584 28.5234H174.808ZM185.317 4.27476L181.771 15.358H189.802L185.53 4.27476H185.317Z" fill="#F4F3F0"/>
<path d="M95.3711 68.6718L95.6061 66.4215H95.8196C96.8043 67.3097 97.9393 68.0215 99.1731 68.5245C100.351 68.9818 101.603 69.2241 102.868 69.2396C104.423 69.3229 105.951 68.8189 107.14 67.8305C107.672 67.3577 108.092 66.7752 108.368 66.1245C108.645 65.4737 108.773 64.7709 108.742 64.066C108.742 63.2177 108.537 62.3816 108.144 61.6264C107.649 60.7485 106.989 59.9708 106.201 59.334C105.043 58.3979 103.807 57.5607 102.505 56.8313C101.395 56.2004 100.369 55.5485 99.3654 54.8755C98.4223 54.2241 97.6049 53.4122 96.9517 52.4779C96.297 51.5073 95.9615 50.3619 95.9905 49.1971C95.9669 48.32 96.147 47.4491 96.5172 46.6509C96.8874 45.8527 97.4378 45.1483 98.1265 44.5913C99.6318 43.3808 101.523 42.7328 103.466 42.7617C104.563 42.7685 105.657 42.8741 106.735 43.0771C107.672 43.2197 108.585 43.4887 109.447 43.8763L109.255 45.9794H109.02C108.323 45.2153 107.465 44.6104 106.506 44.2071C105.546 43.8039 104.509 43.612 103.466 43.645C102.058 43.5835 100.673 44.0157 99.5576 44.8648C99.0679 45.2607 98.6781 45.763 98.4186 46.3322C98.1592 46.9015 98.0373 47.5222 98.0624 48.1456C98.036 49.0951 98.3289 50.0267 98.8955 50.7955C99.4865 51.5707 100.209 52.2395 101.031 52.7724C101.907 53.3612 102.826 53.9291 103.808 54.4759C104.791 55.0227 106.072 55.8219 107.14 56.579C108.206 57.2586 109.134 58.1289 109.874 59.1447C110.613 60.2774 110.978 61.6067 110.921 62.9513C110.952 64.2447 110.611 65.5204 109.939 66.6318C109.262 67.7069 108.292 68.5739 107.14 69.1344C105.807 69.7556 104.343 70.0583 102.868 70.0177C101.664 69.9959 100.464 69.8763 99.2799 69.6602C97.9564 69.4153 96.6507 69.0851 95.3711 68.6718Z" fill="#F4F3F0"/>
<path d="M114.402 69.4711L124.634 43.2666H126.962L137.215 69.4711H134.438L129.717 57.1891H121.173L117.179 69.4711H114.402ZM124.826 45.2225L121.302 56.3058H129.312L125.04 45.2225H124.826Z" fill="#F4F3F0"/>
<path d="M143.388 69.4706V43.2871H154.559V45.1168L148.322 44.2335C147.168 44.0863 146.421 44.0022 146.036 44.0022V55.7374C146.442 55.7374 147.232 55.7374 148.386 55.6112L154.217 55.2537V56.9572L148.322 56.6207C147.168 56.6207 146.378 56.4945 145.972 56.4945V69.4706H143.388Z" fill="#F4F3F0"/>
<path d="M155.947 69.4711L166.179 43.2666H168.528L178.76 69.4711H176.09L171.369 57.1891H162.825L158.724 69.4711H155.947ZM166.435 45.2014L162.911 56.2847H170.921L166.649 45.2014H166.435Z" fill="#F4F3F0"/>
<path d="M184.933 43.2876H190.016C192.238 43.1528 194.443 43.7362 196.296 44.949C197.007 45.5013 197.572 46.2139 197.943 47.0266C198.315 47.8392 198.483 48.728 198.432 49.6179C198.474 51.0266 197.979 52.3997 197.044 53.4666C195.975 54.5815 194.564 55.3203 193.028 55.5697V55.801C194.626 56.0811 196.076 56.8988 197.129 58.1144C198.268 59.4226 199.106 60.9579 199.585 62.615C199.948 63.9296 200.427 65.2104 201.017 66.4426C201.364 67.2173 201.9 67.8962 202.576 68.4196C203.225 68.8399 203.95 69.1327 204.712 69.2818V69.4711H203.153C202.198 69.5096 201.25 69.3069 200.397 68.8822C199.587 68.3757 198.948 67.6437 198.56 66.7792C197.94 65.5209 197.453 64.203 197.108 62.8464C196.67 60.7905 195.656 58.8963 194.181 57.3783C192.965 56.2995 191.375 55.7201 189.739 55.759H189.504V55.086H189.739C193.818 55.086 195.848 53.2352 195.848 49.5338C195.848 45.8323 193.946 44.0657 190.102 44.0657H187.603V69.4711H185.018L184.933 43.2876Z" fill="#F4F3F0"/>
<path d="M209.347 69.4706V43.2871H211.931V69.4706H209.347Z" fill="#F4F3F0"/>
<path d="M219.515 68.6715L219.75 66.4211H219.963C220.944 67.314 222.08 68.0263 223.317 68.5242C224.494 68.9815 225.746 69.2238 227.012 69.2393C228.566 69.3184 230.092 68.8149 231.284 67.8302C231.808 67.3528 232.221 66.7689 232.494 66.1189C232.767 65.469 232.894 64.7684 232.865 64.0657C232.871 63.219 232.674 62.3828 232.288 61.6261C231.784 60.7539 231.126 59.9776 230.344 59.3337C229.183 58.3932 227.939 57.5557 226.627 56.831C225.538 56.2001 224.491 55.5481 223.509 54.8752C222.509 54.1985 221.641 53.3509 220.946 52.3725C220.307 51.3956 219.98 50.2531 220.006 49.0917C219.977 48.2138 220.155 47.3413 220.526 46.5424C220.896 45.7435 221.45 45.0396 222.142 44.4859C223.707 43.2749 225.665 42.6623 227.653 42.7614C228.749 42.7701 229.843 42.8757 230.921 43.0768C231.858 43.2194 232.771 43.4884 233.634 43.876L233.441 45.9791H233.206C232.508 45.2172 231.649 44.6138 230.69 44.2108C229.731 43.8077 228.695 43.6145 227.653 43.6446C226.244 43.5832 224.859 44.0154 223.744 44.8644C223.254 45.2604 222.864 45.7627 222.605 46.3319C222.345 46.9012 222.224 47.5218 222.249 48.1453C222.225 49.0912 222.51 50.0197 223.06 50.7952C223.659 51.5637 224.38 52.2314 225.196 52.7721C226.072 53.3609 226.991 53.9288 227.973 54.4756C228.956 55.0224 230.237 55.8216 231.305 56.5787C232.352 57.2769 233.258 58.1613 233.975 59.1865C234.704 60.3235 235.068 61.6496 235.022 62.9931C235.046 64.2885 234.698 65.5643 234.018 66.6735C233.355 67.7524 232.391 68.6211 231.241 69.1762C229.907 69.7952 228.444 70.0977 226.969 70.0595C225.765 70.0387 224.565 69.9192 223.381 69.702C222.071 69.4415 220.779 69.0973 219.515 68.6715Z" fill="#F4F3F0"/>
<path d="M24.6055 54.2653V11.9932H42.6332V14.9585L32.4445 13.5705C31.228 13.3774 30.0014 13.251 28.7706 13.1919V32.1198C29.4328 32.1198 30.693 32.1198 32.5727 31.9305L46.3925 31.3416V34.1177L32.5727 33.5078C30.693 33.3816 29.4328 33.3185 28.7706 33.3185V54.3494L24.6055 54.2653Z" fill="#F4F3F0"/>
<path d="M31.8037 60.3438L32.1241 57.2102H32.4445C33.8338 58.3884 35.4154 59.3269 37.1223 59.9863C38.7691 60.6254 40.5214 60.9604 42.2914 60.9747C44.4302 61.0472 46.5188 60.3267 48.144 58.9557C48.866 58.2799 49.4308 57.4581 49.7995 56.5468C50.1683 55.6356 50.3322 54.6565 50.28 53.677C50.285 52.4943 50.0069 51.3271 49.4683 50.27C48.77 49.0502 47.8506 47.9668 46.7556 47.0733C45.1402 45.7522 43.4025 44.5834 41.5652 43.5822C40.0273 42.6989 38.5748 41.7735 37.2932 40.8271C35.9601 39.9142 34.8028 38.7747 33.8756 37.4621C32.7827 35.7371 32.3441 33.6872 32.6373 31.6746C32.9304 29.662 33.9364 27.8161 35.4776 26.463C37.6648 24.7605 40.4035 23.894 43.1885 24.0234C44.7232 24.0426 46.253 24.1974 47.7595 24.4861C49.0666 24.6812 50.3393 25.0565 51.5402 25.6007L51.2839 28.545H50.9635C49.9814 27.4851 48.7781 26.6468 47.4361 26.0877C46.094 25.5287 44.645 25.2621 43.1885 25.3063C41.2173 25.2096 39.2764 25.8142 37.7204 27.0098C37.0297 27.5603 36.4775 28.2605 36.107 29.0558C35.7365 29.8511 35.5576 30.7199 35.5844 31.5945C35.5504 32.9189 35.9553 34.2182 36.7378 35.296C37.5582 36.3751 38.5542 37.3131 39.6855 38.072C40.903 38.8923 42.1846 39.6914 43.573 40.4485C44.9614 41.2056 46.7129 42.3203 48.2295 43.3298C49.6914 44.2996 50.9526 45.5344 51.9461 46.9681C52.9777 48.5519 53.4921 50.4088 53.4199 52.289C53.4564 54.1006 52.9753 55.8859 52.0315 57.4415C51.1246 58.9896 49.7818 60.2459 48.1654 61.0588C46.3367 61.9321 44.3233 62.3646 42.2914 62.3207C40.613 62.2885 38.9406 62.1126 37.2932 61.7949C35.4323 61.4336 33.5982 60.9488 31.8037 60.3438Z" fill="#F4F3F0"/>
</g>
</g>
<defs>
<clipPath id="clip0_115_61">
<rect width="235" height="78" fill="white"/>
</clipPath>
<clipPath id="clip1_115_61">
<rect width="233.357" height="70.9583" fill="white" transform="translate(1.64355 1.625)"/>
</clipPath>
</defs>
</svg>
